<?xml version="1.0" encoding="UTF-8"?>
<svg id="Layer_1" data-name="Layer 1" xmlns="http://www.w3.org/2000/svg" xmlns:xlink="http://www.w3.org/1999/xlink" viewBox="0 0 142.02 71.9">
  <defs>
    <style>
      .cls-1 {
        fill: url(#linear-gradient-2);
      }

      .cls-2 {
        fill: url(#radial-gradient);
      }

      .cls-3 {
        fill: #2c2e2e;
        font-family: PTSerif-Bold, 'PT Serif';
        font-size: 21px;
        font-weight: 700;
      }

      .cls-4 {
        clip-path: url(#clippath);
      }

      .cls-5 {
        fill: url(#radial-gradient-2);
      }

      .cls-6 {
        fill: none;
      }

      .cls-7 {
        fill: url(#radial-gradient-3);
      }

      .cls-8 {
        fill: url(#linear-gradient-3);
      }

      .cls-9 {
        fill: url(#linear-gradient);
      }

      .cls-10 {
        fill: #6c52ee;
      }
    </style>
    <clipPath id="clippath">
      <rect class="cls-6" x="0" y="31.9" width="37.05" height="40"/>
    </clipPath>
    <radialGradient id="radial-gradient" cx="-189.71" cy="477.61" fx="-189.71" fy="477.61" r="1" gradientTransform="translate(-8857.16 13253.64) rotate(78.63) scale(59.27 -23.65)" gradientUnits="userSpaceOnUse">
      <stop offset=".29" stop-color="#619bff"/>
      <stop offset=".7" stop-color="#cddbf8" stop-opacity="0"/>
    </radialGradient>
    <linearGradient id="linear-gradient" x1="14.94" y1="58.27" x2="9.27" y2="57.2" gradientTransform="translate(0 103.68) scale(1 -1)" gradientUnits="userSpaceOnUse">
      <stop offset="0" stop-color="#9e61ff"/>
      <stop offset=".79" stop-color="#8e61ff" stop-opacity="0"/>
    </linearGradient>
    <radialGradient id="radial-gradient-2" cx="-187.25" cy="471.26" fx="-187.25" fy="471.26" r="1" gradientTransform="translate(-12124.87 18782.83) rotate(55.22) scale(45.31 -43.82)" gradientUnits="userSpaceOnUse">
      <stop offset=".29" stop-color="#619bff"/>
      <stop offset=".7" stop-color="#cddbf8" stop-opacity="0"/>
    </radialGradient>
    <linearGradient id="linear-gradient-2" x1="27.91" y1="50.45" x2="18.79" y2="44.53" gradientTransform="translate(0 103.68) scale(1 -1)" gradientUnits="userSpaceOnUse">
      <stop offset="0" stop-color="#9e61ff"/>
      <stop offset=".79" stop-color="#8e61ff" stop-opacity="0"/>
    </linearGradient>
    <radialGradient id="radial-gradient-3" cx="-188.67" cy="473.48" fx="-188.67" fy="473.48" r="1" gradientTransform="translate(-13268.65 16502.16) rotate(67.34) scale(53.55 -39.29)" gradientUnits="userSpaceOnUse">
      <stop offset=".29" stop-color="#619bff"/>
      <stop offset=".7" stop-color="#cddbf8" stop-opacity="0"/>
    </radialGradient>
    <linearGradient id="linear-gradient-3" x1="36.71" y1="61.84" x2="27.73" y2="58.33" gradientTransform="translate(0 103.68) scale(1 -1)" gradientUnits="userSpaceOnUse">
      <stop offset="0" stop-color="#9e61ff"/>
      <stop offset=".79" stop-color="#8e61ff" stop-opacity="0"/>
    </linearGradient>
  </defs>
  <g class="cls-4">
    <g>
      <path class="cls-10" d="m11.15,44.63l-.16,14.67-3.2,1.8c-1.18.68-2.51,1.05-3.87,1.08-1.36.03-2.71-.28-3.91-.9l.23-18.8v-.72l.03-1.32c.01-1.51.43-2.99,1.19-4.29.77-1.3,1.86-2.37,3.18-3.11,1.31-.74,2.8-1.12,4.31-1.11,1.51.02,2.99.43,4.29,1.2l1.08.66c-.97.82-1.75,1.84-2.29,2.99-.54,1.15-.82,2.4-.83,3.67l-.04,3.45v.76Z"/>
      <path class="cls-2" d="m11.15,44.63l-.16,14.67-3.2,1.8c-1.18.68-2.51,1.05-3.87,1.08-1.36.03-2.71-.28-3.91-.9l.23-18.8v-.72l.03-1.32c.01-1.51.43-2.99,1.19-4.29.77-1.3,1.86-2.37,3.18-3.11,1.31-.74,2.8-1.12,4.31-1.11,1.51.02,2.99.43,4.29,1.2l1.08.66c-.97.82-1.75,1.84-2.29,2.99-.54,1.15-.82,2.4-.83,3.67l-.04,3.45v.76Z"/>
      <path class="cls-9" d="m11.15,44.63l-.16,14.67-3.2,1.8c-1.18.68-2.51,1.05-3.87,1.08-1.36.03-2.71-.28-3.91-.9l.23-18.8v-.72l.03-1.32c.01-1.51.43-2.99,1.19-4.29.77-1.3,1.86-2.37,3.18-3.11,1.31-.74,2.8-1.12,4.31-1.11,1.51.02,2.99.43,4.29,1.2l1.08.66c-.97.82-1.75,1.84-2.29,2.99-.54,1.15-.82,2.4-.83,3.67l-.04,3.45v.76Z"/>
      <path class="cls-10" d="m31.63,60.19l-17.05,9.57-.61.35-1.21.66c-1.31.73-2.79,1.11-4.29,1.09-1.5-.02-2.97-.43-4.26-1.2-1.29-.76-2.36-1.85-3.1-3.16C.37,66.19-.01,64.71,0,63.21v-1.22c1.17.56,2.44.84,3.74.84,1.53,0,3.03-.4,4.36-1.16l2.87-1.61.66-.37,12.78-7.21,3.28,1.97c1.05.6,1.94,1.44,2.63,2.43.68,1,1.13,2.13,1.32,3.33Z"/>
      <path class="cls-5" d="m31.63,60.19l-17.05,9.57-.61.35-1.21.66c-1.31.73-2.79,1.11-4.29,1.09-1.5-.02-2.97-.43-4.26-1.2-1.29-.76-2.36-1.85-3.1-3.16C.37,66.19-.01,64.71,0,63.21v-1.22c1.17.56,2.44.84,3.74.84,1.53,0,3.03-.4,4.36-1.16l2.87-1.61.66-.37,12.78-7.21,3.28,1.97c1.05.6,1.94,1.44,2.63,2.43.68,1,1.13,2.13,1.32,3.33Z"/>
      <path class="cls-1" d="m31.63,60.19l-17.05,9.57-.61.35-1.21.66c-1.31.73-2.79,1.11-4.29,1.09-1.5-.02-2.97-.43-4.26-1.2-1.29-.76-2.36-1.85-3.1-3.16C.37,66.19-.01,64.71,0,63.21v-1.22c1.17.56,2.44.84,3.74.84,1.53,0,3.03-.4,4.36-1.16l2.87-1.61.66-.37,12.78-7.21,3.28,1.97c1.05.6,1.94,1.44,2.63,2.43.68,1,1.13,2.13,1.32,3.33Z"/>
      <path class="cls-10" d="m32.68,59.6l-.43.24c-.23-1.24-.73-2.41-1.45-3.44-.73-1.03-1.66-1.89-2.75-2.52l-2.97-1.76-.66-.38-12.61-7.48.04-3.84c0-1.21.28-2.41.81-3.51.53-1.09,1.3-2.05,2.25-2.81l16.89,10.01.61.36.45.26c1.3.77,2.37,1.86,3.11,3.18.74,1.31,1.12,2.8,1.1,4.3-.02,1.51-.43,2.98-1.2,4.28-.77,1.3-1.86,2.37-3.18,3.11Z"/>
      <path class="cls-7" d="m32.68,59.6l-.43.24c-.23-1.24-.73-2.41-1.45-3.44-.73-1.03-1.66-1.89-2.75-2.52l-2.97-1.76-.66-.38-12.61-7.48.04-3.84c0-1.21.28-2.41.81-3.51.53-1.09,1.3-2.05,2.25-2.81l16.89,10.01.61.36.45.26c1.3.77,2.37,1.86,3.11,3.18.74,1.31,1.12,2.8,1.1,4.3-.02,1.51-.43,2.98-1.2,4.28-.77,1.3-1.86,2.37-3.18,3.11Z"/>
      <path class="cls-8" d="m32.68,59.6l-.43.24c-.23-1.24-.73-2.41-1.45-3.44-.73-1.03-1.66-1.89-2.75-2.52l-2.97-1.76-.66-.38-12.61-7.48.04-3.84c0-1.21.28-2.41.81-3.51.53-1.09,1.3-2.05,2.25-2.81l16.89,10.01.61.36.45.26c1.3.77,2.37,1.86,3.11,3.18.74,1.31,1.12,2.8,1.1,4.3-.02,1.51-.43,2.98-1.2,4.28-.77,1.3-1.86,2.37-3.18,3.11Z"/>
    </g>
  </g>
  <text class="cls-3" transform="translate(41.94 57.68)"><tspan x="0" y="0">ViriShare</tspan></text>
</svg>